# xmcd CD database file
#
# Track frame offsets:
#	151
#	11572
#	25380
#	36164
#	44586
#	55849
#	66310
#	77314
#	91859
#	100307
#	115456
#	127542
#	138816
#	147211
#
# Disc length: 2032 seconds
#
# Revision: 0
# Processed by: cddbd v1.5.1PL2 Copyright (c) Steve Scherf et al.
# Submitted via: Feurio! 1.68 - http://www.feurio.com
#
DISCID=b207ee0e
DTITLE=Fats Domino - The Fat Man Live
DYEAR=1900
DGENRE=
TTITLE0=Ain´t That A Shame
TTITLE1=Blueberry Hill
TTITLE2=Blue Monday
TTITLE3=Be My Guest
TTITLE4=I Want To Walk You Home
TTITLE5=I´m Gonna Be A Wheel Someday
TTITLE6=The Fat Man
TTITLE7=I´m In Love Again
TTITLE8=I´m Ready
TTITLE9=Jambalaya
TTITLE10=Let The Four Winds Blow
TTITLE11=My Girl Josephine
TTITLE12=Red Sails In The Sunset
TTITLE13=Whole Lotta Loving
EXTD=
EXTT0=
EXTT1=
EXTT2=
EXTT3=
EXTT4=
EXTT5=
EXTT6=
EXTT7=
EXTT8=
EXTT9=
EXTT10=
EXTT11=
EXTT12=
EXTT13=
PLAYORDER=
